<svg xmlns="http://www.w3.org/2000/svg" viewBox="0 0 49.2 49.2"  xmlns:v="https://vecta.io/nano"><circle cx="24.4" cy="24.8" r="4.4"/><path d="M29.9 14h-11c-1.6 0-3 .5-3.9 1.4s-1.4 2.3-1.4 3.9v11c0 1.6.5 3 1.5 4 1 .9 2.3 1.4 3.9 1.4h10.9c1.6 0 3-.5 3.9-1.4 1-.9 1.5-2.3 1.5-3.9v-11c0-1.6-.5-2.9-1.4-3.9-1-1-2.3-1.5-4-1.5zm-5.5 17.6a6.74 6.74 0 0 1-6.8-6.8 6.74 6.74 0 0 1 6.8-6.8c3.7 0 6.9 3 6.9 6.8s-3.1 6.8-6.9 6.8zm7.1-12.3a1.58 1.58 0 0 1-1.6-1.6 1.58 1.58 0 0 1 1.6-1.6 1.58 1.58 0 0 1 1.6 1.6 1.58 1.58 0 0 1-1.6 1.6zM24.6 0C11 0 0 11 0 24.6s11 24.6 24.6 24.6 24.6-11 24.6-24.6C49.3 11 38.2 0 24.6 0zm13.1 30.4c0 2.3-.8 4.3-2.2 5.7s-3.4 2.1-5.6 2.1H19c-2.2 0-4.2-.7-5.6-2.1-1.5-1.4-2.2-3.4-2.2-5.7v-11c0-4.6 3.1-7.8 7.8-7.8h11c2.3 0 4.2.8 5.6 2.2s2.1 3.3 2.1 5.6v11z"/></svg>