<svg xmlns="http://www.w3.org/2000/svg" viewBox="0 0 60 60"  fill-rule="evenodd" xmlns:v="https://vecta.io/nano"><path d="M30,60c16.6,0,30-13.4,30-30S46.6,0,30,0S0,13.4,0,30S13.4,60,30,60z"/><path d="M21.9 43.8V25.5h-5.7v18.3h5.7zm0-24.8c0-1.6-1.1-2.9-2.9-2.9s-2.9 1.2-2.9 2.9c0 1.6 1.1 2.9 2.9 2.9h0c1.8 0 2.9-1.3 2.9-2.9zm9.2 24.8V33.4c0-.6 0-1.1.2-1.5.4-1.1 1.5-2.3 3.2-2.3 2.2 0 3.7 1.3 3.7 3.8v10.4h5.7V33.1c0-5.7-3.1-8.4-7.1-8.4-3.3 0-4.8 1.9-5.6 3.1v-2.4h-5.7c.1 1.8 0 18.4 0 18.4h5.6 0z" fill="#fff"/></svg>