<svg xmlns="http://www.w3.org/2000/svg" viewBox="0 0 547.82 589.31" fill="#231f20" xmlns:v="https://vecta.io/nano"><path d="M547.82,148.58q0,62.52-44.5,107.25t-106,42.75q-63-2.49-105.5-50.5V391.59h-37V149.08q0-61.5,44.75-106.25T405.82.08q59.49,1.5,100.75,45T547.82,148.58Zm-38,3q.49-45.18-30.14-79.09T404.83,37.08q-47.2-2.49-80.61,32.66t-32.4,82.36q1,45.19,32.15,77.34t75.34,32.14q45.21,0,77.35-32.14T509.82,151.59Z"/><path d="M293,440.22q1.5,61.5-44,106.25T142,589.22q-59.5-1.5-100.75-45T0,440.72q0-62.49,44.41-107.25T150.2,290.72q62.9,2.5,104.8,50.5V197.72h38Zm-38-3q-1-45.19-31.82-77.34t-74.92-32.15q-45.12-.5-77.44,31.9T38,437.71q-.51,45.21,30.07,79.11t74.67,35.4q47.12,2.5,80.43-32.65T255,437.21Z"/></svg>