<svg xmlns="http://www.w3.org/2000/svg" viewBox="0 0 909.15 118.73"  xmlns:v="https://vecta.io/nano" class="nielspeschel"><defs><clipPath  transform="translate(0 -13.89)"><path d="M0 14.35h101.91v118.28H0z" fill="none"/></clipPath></defs><path d="M77 .99h6v69.43h-6zm15.86 0h68.44v5.36H98.91v26.76h56.44v5.15H98.91v26.85h62.39v5.36H92.86zm74.99 0h6.05v64h34.22l19.93-.59-.19 6h-60zm63.88 53.46c15.07 8.66 26.38 11.66 41.36 11.66 20.13 0 33.62-8.63 33.62-17.16 0-10-7.83-14.28-34.32-13-24.69 1.1-39.47-3.76-39.47-16.36 0-12 15.17-19.54 39.08-19.54 13.09 0 24.3 1.69 34.41 6.94v5.76C296.2 6.99 285.29 5.21 272 5.21c-19.54 0-32.93 5.65-32.93 14.38 0 6.64 6.84 12.2 33.22 10.91 23-1.09 40.47 1.69 40.47 18.35 0 13.29-18.65 22.61-39.67 22.61-15.18 0-26.48-3-41.36-10.81zM362.62.99L407.46.4C427.59.4 442 12.11 442 25.79s-14.38 25-34.51 25c-13.69 0-25.2-.79-38.79-1.78v21.41h-6.05zm44.93 44.34c16.07 0 28.37-8.53 28.37-19.54 0-10.22-11.21-19.94-28.37-19.94-13.78 0-25.49.5-38.88.6v37.09c13.33.99 25.1 1.79 38.88 1.79zM448.92.99h68.43v5.36H455v26.76h56.4v5.16H455v26.84h62.38v5.36h-68.46zm72.41 53.46c15.07 8.66 26.38 11.66 41.36 11.66 20.13 0 33.62-8.63 33.62-17.16 0-10-7.84-14.28-34.32-13-24.69 1.05-39.47-3.84-39.47-16.41 0-12 15.17-19.54 39.08-19.54 13.09 0 24.3 1.69 34.41 6.94v5.76c-10.21-5.76-21.12-7.54-34.41-7.54-19.54 0-32.93 5.65-32.93 14.38 0 6.65 6.84 12.2 33.22 10.91 23-1.09 40.47 1.69 40.47 18.35 0 13.29-18.65 22.61-39.67 22.61-15.18 0-26.48-3-41.36-10.81zM651.06 0c9.72 0 20.93 2.08 27.87 6.94v7C672 7.84 661 5.46 651.16 5.46c-23.8 0-39.17 12-39.17 30.25s15.57 30.25 39.67 30.25c9.82 0 20.33-2.48 27.27-8.43v6.94c-6.94 4.86-17.55 6.94-27.37 6.94-27.77 0-45.62-14.28-45.62-35.7S623.59 0 651.06 0zm34.62.99h6.05v32H758v-32h6v69.43h-6v-32h-66.27v32h-6.05zm88.32 0h68.4v5.36H780v26.76h56.44v5.16H780v26.84h62.4v5.36H774zm75 0h6v64h34.22l19.93-.6-.19 6H849z" fill="#fffff"/><g clip-path="url(#A)" fill="#fffff"><path d="M6.06.46L1.51 4.44l100.06 114.29.34-.29v-8.5L6.06.46z"/><path d="M0 .46h6.07v68.83H0z"/></g></svg>