<svg xmlns="http://www.w3.org/2000/svg" viewBox="0 0 491.66 299.99"  fill="#fffff" xmlns:v="https://vecta.io/nano"><path d="M491.65 277.7L248.55 0l-11.53 10.1 253.77 289.89.86-.75V277.7z"/><path d="M233.18 0h15.4v174.58h-15.4zM9.09 34a17.06 17.06 0 0 1-6.67-6.49A18.13 18.13 0 0 1 0 18.26 18.11 18.11 0 0 1 2.42 9a17.14 17.14 0 0 1 6.69-6.5A19.67 19.67 0 0 1 18.69.13 19.7 19.7 0 0 1 26 1.46a15.21 15.21 0 0 1 5.7 3.86l-2.39 2.4a14.21 14.21 0 0 0-10.52-4.23 15.5 15.5 0 0 0-7.69 1.94 14.06 14.06 0 0 0-5.42 5.29 14.65 14.65 0 0 0-2 7.54 14.63 14.63 0 0 0 2 7.53 14.09 14.09 0 0 0 5.42 5.3A15.49 15.49 0 0 0 18.79 33a14 14 0 0 0 10.54-4.27l2.39 2.39A15.23 15.23 0 0 1 26 35a19.69 19.69 0 0 1-7.35 1.35A19.44 19.44 0 0 1 9.09 34zM45 34a17.43 17.43 0 0 1-6.72-6.5 18 18 0 0 1-2.42-9.26A18 18 0 0 1 38.26 9 17.4 17.4 0 0 1 45 2.5 19.57 19.57 0 0 1 54.58.13a19.49 19.49 0 0 1 9.55 2.34A17.41 17.41 0 0 1 70.82 9a17.93 17.93 0 0 1 2.45 9.29 18 18 0 0 1-2.45 9.29A17.31 17.31 0 0 1 64.13 34a19.49 19.49 0 0 1-9.55 2.34A19.67 19.67 0 0 1 45 34zm17.24-2.91a13.87 13.87 0 0 0 5.35-5.29 15.08 15.08 0 0 0 1.93-7.56 15 15 0 0 0-1.93-7.56 13.9 13.9 0 0 0-5.35-5.3 16.28 16.28 0 0 0-15.3 0 14 14 0 0 0-5.4 5.3 14.74 14.74 0 0 0-2 7.56 14.8 14.8 0 0 0 2 7.56 13.94 13.94 0 0 0 5.4 5.29 16.28 16.28 0 0 0 15.3 0zM81.72.44h14.51a21.22 21.22 0 0 1 10 2.26 16.59 16.59 0 0 1 6.7 6.3 17.75 17.75 0 0 1 2.39 9.24 17.77 17.77 0 0 1-2.39 9.24 16.57 16.57 0 0 1-6.72 6.31 21.22 21.22 0 0 1-10 2.27H81.72zM96 32.82a17.24 17.24 0 0 0 8.22-1.82 13.45 13.45 0 0 0 5.45-5.14 14.62 14.62 0 0 0 1.94-7.56 14.62 14.62 0 0 0-1.94-7.56 13.48 13.48 0 0 0-5.45-5.15A17.36 17.36 0 0 0 96 3.7H85.49v29.12zM123.78.44h3.76v35.64h-3.76zm45.16 0v35.64h-3.11L142.92 7.16v28.92h-3.77V.44h3.11l23 28.92V.44zm36.71 17.82h3.61v13.59a17.37 17.37 0 0 1-5.9 3.36 22 22 0 0 1-7.18 1.17 19.72 19.72 0 0 1-9.63-2.38 17.26 17.26 0 0 1-6.72-6.49 18 18 0 0 1-2.44-9.29A17.93 17.93 0 0 1 179.83 9a17.35 17.35 0 0 1 6.72-6.5 19.84 19.84 0 0 1 9.68-2.37 20.76 20.76 0 0 1 7.48 1.3 15 15 0 0 1 5.76 3.84l-2.35 2.4a14.6 14.6 0 0 0-10.74-4.18 16.08 16.08 0 0 0-7.82 1.91 14.08 14.08 0 0 0-5.47 5.3 14.66 14.66 0 0 0-2 7.56 14.55 14.55 0 0 0 2 7.53 14.38 14.38 0 0 0 5.45 5.3 15.68 15.68 0 0 0 7.79 1.91 15.48 15.48 0 0 0 9.32-2.75zM83.2 95.8H63.34l-4.28 9.52h-3.92l16.29-35.64h3.72l16.29 35.64h-4zm-1.38-3l-8.55-19.2-8.56 19.15zm17.74 11.56a14 14 0 0 1-5.62-3.36l1.48-2.91a14.07 14.07 0 0 0 5.14 3.14 19 19 0 0 0 6.62 1.19q4.78 0 7.18-1.75a5.43 5.43 0 0 0 2.39-4.56 4.54 4.54 0 0 0-1.3-3.41 8.71 8.71 0 0 0-3.18-2 53 53 0 0 0-5.27-1.47 52.71 52.71 0 0 1-6.41-2 10.43 10.43 0 0 1-4.1-2.87 7.65 7.65 0 0 1-1.71-5.25 8.89 8.89 0 0 1 1.43-4.91 9.72 9.72 0 0 1 4.38-3.54 18 18 0 0 1 7.33-1.32 21.54 21.54 0 0 1 6 .84 17.39 17.39 0 0 1 5.08 2.35l-1.27 3a17.67 17.67 0 0 0-4.79-2.22 17.94 17.94 0 0 0-5-.73q-4.68 0-7 1.8a5.62 5.62 0 0 0-2.37 4.66 4.64 4.64 0 0 0 1.3 3.44 8.48 8.48 0 0 0 3.26 2q2 .69 5.27 1.51a52.39 52.39 0 0 1 6.34 1.91 10.27 10.27 0 0 1 4.1 2.85 7.52 7.52 0 0 1 1.68 5.16 8.79 8.79 0 0 1-1.46 4.92 9.71 9.71 0 0 1-4.45 3.51 18.5 18.5 0 0 1-7.38 1.3 22.91 22.91 0 0 1-7.67-1.28zm64.79-8.56H144.5l-4.28 9.52h-3.92l16.29-35.64h3.72l16.29 35.64h-4zm-1.37-3l-8.55-19.2-8.56 19.15zm45.31-23.12v35.64h-3.1L182.28 76.4v28.92h-3.77V69.68h3.1l23 28.92V69.68zm-64.66 95.37h-19.86l-4.27 9.52h-3.92l16.29-35.64h3.72l16.29 35.64h-4zm-1.37-3.05l-8.56-19.14-8.55 19.14zm39.86 12.57L174 163.11a24 24 0 0 1-2.85.16h-9.58v11.3h-3.76v-35.64h13.34q6.81 0 10.69 3.26a11.08 11.08 0 0 1 3.87 9 11 11 0 0 1-8.15 11.2l8.71 12.22zm-3-16.85a9.2 9.2 0 0 0 0-13.22q-2.81-2.31-8.1-2.31h-9.47v17.87H171q5.32 0 8.12-2.34zM199.18 144h-10.44v-3.77h25.41V144h-10.49v30.55h-4.48z"/></svg>