<svg xmlns="http://www.w3.org/2000/svg" viewBox="0 0 875.23 363.84"  xmlns:v="https://vecta.io/nano">
<!-- stack -->
<g stroke-width="2">
    <path class = "bottomStack" d="M391.84,254.76l230.87-72.87L870.84,265l-248.13,97.2Z" stroke="#414042"/>
    <path class = "midStack" d="M391.84 164.61l230.87-72.87 248.13 83.12-248.13 97.19z" stroke="#939598"/>
    <path class = "topStack" d="M391.84,74.45,622.71,1.58,870.84,84.7,622.71,181.89Z" stroke="#fff"/>
</g>
<!-- text -->
<g class = "title" fill="#fff">
    <path d="M18.45 129.76H0V125h42.45v4.8H24v47.7h-5.55zm40.91 44.67a25.59 25.59 0 0 1-9.9-9.57 27.95 27.95 0 0 1 0-27.3 25.57 25.57 0 0 1 9.9-9.56 28.91 28.91 0 0 1 14.14-3.49A28.74 28.74 0 0 1 87.56 128a25.48 25.48 0 0 1 9.86 9.57 27.81 27.81 0 0 1 0 27.37 25.38 25.38 0 0 1-9.86 9.56 28.63 28.63 0 0 1-14.06 3.45 28.9 28.9 0 0 1-14.14-3.52zm25.39-4.28a20.27 20.27 0 0 0 7.87-7.8 23.11 23.11 0 0 0 0-22.27 20.27 20.27 0 0 0-7.87-7.8 22.59 22.59 0 0 0-11.25-2.82 22.82 22.82 0 0 0-11.29 2.82 20.55 20.55 0 0 0-8 7.8 23 23 0 0 0 0 22.27 20.55 20.55 0 0 0 8 7.8A22.81 22.81 0 0 0 73.5 173a22.58 22.58 0 0 0 11.25-2.85zm64.12-40.39q5.7 4.8 5.7 13.2 0 8.4-5.7 13.17-5.7 4.76-15.75 4.76H119v16.57h-5.55V125h19.65q10.07 0 15.77 4.76zm-4 22.84q4.13-3.4 4.13-9.6 0-6.2-4.12-9.78-4.12-3.42-11.93-3.42H119V156h14q7.77 0 11.9-3.4zm85.98-27.6v52.5h-5.48v-24.26h-32.85v24.22H187V125h5.55v23.4h32.85V125zm54.22 47.66v4.8H248V125h36v4.8h-30.5v18.68h27.15v4.72H253.5v19.5zm45.98-9.22H301.8l-6.3 14h-5.78l24-52.5h5.48l24 52.5h-5.85zm-2-4.5l-12.6-28.2-12.6 28.2zm63.8-33.94l-23.25 52.5h-5.48L340.87 125h6l20.1 45.6 20.25-45.6z"/>
    <path d="M418.12 159.31v18.15h-5.47v-18.15l-21-34.35h5.92l18 29.48 18-29.48h5.55zM13.8 219.76v20.63H41v4.8H13.8v22.27H8.25V215h36v4.8zm47.2 42.3q-5.7-5.85-5.7-17V215h5.55v29.85c0 6.11 1.38 10.65 4.13 13.65s6.72 4.5 11.93 4.5 9.24-1.5 12-4.5S93 250.92 93 244.81V215h5.4v30q0 11.18-5.66 17-5.66 5.82-15.86 5.85-10.22.06-15.88-5.79zM115.12 215h5.55v47.7h29.4v4.8h-34.95zm44.18 0h5.55v47.7h29.4v4.8H159.3zm67.08 51a20.61 20.61 0 0 1-8.28-5l2.17-4.28a20.93 20.93 0 0 0 7.58 4.62 27.79 27.79 0 0 0 9.75 1.76q7.05 0 10.57-2.59a8 8 0 0 0 3.53-6.71 6.71 6.71 0 0 0-1.92-5 12.89 12.89 0 0 0-4.68-2.8 74.39 74.39 0 0 0-7.73-2.22 82.35 82.35 0 0 1-9.45-2.88 15.62 15.62 0 0 1-6-4.24 11.29 11.29 0 0 1-2.51-7.73 13.06 13.06 0 0 1 2.1-7.23 14.36 14.36 0 0 1 6.45-5.22 26.4 26.4 0 0 1 10.8-2 31.94 31.94 0 0 1 8.81 1.24 25.44 25.44 0 0 1 7.47 3.41l-1.88 4.43a25.65 25.65 0 0 0-7.05-3.26 26.14 26.14 0 0 0-7.35-1.09q-6.9 0-10.39 2.66a8.27 8.27 0 0 0-3.48 6.86 6.85 6.85 0 0 0 1.91 5.07 12.44 12.44 0 0 0 4.8 2.92q2.88 1 7.76 2.21a77.36 77.36 0 0 1 9.34 2.82 15.27 15.27 0 0 1 6 4.2 11.1 11.1 0 0 1 2.47 7.61 12.91 12.91 0 0 1-2.14 7.24 14.33 14.33 0 0 1-6.56 5.17 27.3 27.3 0 0 1-10.87 1.91 33.79 33.79 0 0 1-11.22-1.88zm52.32-46.24h-18.45V215h42.45v4.8h-18.45v47.7h-5.55zm63.15 33.68H312.6l-6.3 14h-5.78l24-52.5H330l24 52.5h-5.85zm-2-4.5l-12.6-28.2-12.6 28.2zm30.83 15.52a25.14 25.14 0 0 1-9.82-9.56 28.08 28.08 0 0 1 0-27.37 25.14 25.14 0 0 1 9.86-9.57 30.68 30.68 0 0 1 24.9-1.5 22.39 22.39 0 0 1 8.4 5.7l-3.52 3.53a20.93 20.93 0 0 0-15.5-6.23 22.8 22.8 0 0 0-11.32 2.85 20.8 20.8 0 0 0-8 7.8 22.76 22.76 0 0 0 0 22.2 20.8 20.8 0 0 0 8 7.8A22.8 22.8 0 0 0 385 263a20.64 20.64 0 0 0 15.53-6.3l3.52 3.53a22.74 22.74 0 0 1-8.44 5.74 29.05 29.05 0 0 1-10.83 2 28.7 28.7 0 0 1-14.1-3.51zm61.47-21.67l-10.73 10.87v13.8h-5.55V215h5.55v31.73L452.25 215h6.37l-22.72 23.74 24.3 28.72h-6.6zM8.25 305h21.37a31.34 31.34 0 0 1 14.71 3.34 24.54 24.54 0 0 1 9.9 9.3 28.09 28.09 0 0 1 0 27.23 24.54 24.54 0 0 1-9.9 9.3 31.34 31.34 0 0 1-14.71 3.33H8.25zm21.08 47.7a25.52 25.52 0 0 0 12.07-2.73 20 20 0 0 0 8-7.58 23.18 23.18 0 0 0 0-22.27 20 20 0 0 0-8-7.58 25.52 25.52 0 0 0-12.07-2.74H13.8v42.9zm77.99-.04v4.8H70.2V305h36v4.8H75.75v18.68h27.15v4.72H75.75v19.5zM163.27 305L140 357.46h-5.47L111.3 305h6l20.1 45.6 20.25-45.6zM208 352.66v4.8h-37.15V305h36v4.8H176.4v18.68h27.15v4.72H176.4v19.5zM221 305h5.55v47.7H256v4.8h-35zm52 49.43a25.53 25.53 0 0 1-9.9-9.57 27.95 27.95 0 0 1 0-27.3A25.5 25.5 0 0 1 273 308a30.38 30.38 0 0 1 28.2 0 25.54 25.54 0 0 1 9.86 9.57 27.81 27.81 0 0 1 0 27.37 25.45 25.45 0 0 1-9.86 9.56 30.42 30.42 0 0 1-28.2 0zm25.39-4.28a20.27 20.27 0 0 0 7.87-7.8 23.18 23.18 0 0 0 0-22.27 20.27 20.27 0 0 0-7.87-7.8 22.59 22.59 0 0 0-11.25-2.82 22.82 22.82 0 0 0-11.29 2.82 20.48 20.48 0 0 0-7.95 7.8 22.9 22.9 0 0 0 0 22.27 20.48 20.48 0 0 0 7.95 7.8A22.81 22.81 0 0 0 287.1 353a22.58 22.58 0 0 0 11.25-2.85zm64.08-40.39q5.7 4.8 5.7 13.2 0 8.4-5.7 13.17-5.7 4.75-15.75 4.76h-14.1v16.57h-5.55V305h19.65q10.05 0 15.75 4.76zm-4 22.84q4.13-3.41 4.12-9.64-.01-6.23-4.12-9.78-4.12-3.42-11.93-3.42h-13.92V336h13.95q7.8 0 11.93-3.4zm58.83 20.06v4.8h-37.13V305h36v4.8h-30.45v18.68h27.15v4.72h-27.15v19.5zm48.9 4.8l-12-16.87a38.05 38.05 0 0 1-4.2.22h-14.1v16.65h-5.55V305H450q10 0 15.75 4.8 5.75 4.8 5.7 13.2a16.3 16.3 0 0 1-12 16.5l12.82 18zm-4.43-24.82q4.13-3.45 4.13-9.68 0-6.23-4.13-9.78-4.12-3.42-11.92-3.42h-14v26.33h14q7.8 0 11.92-3.45z"/>
</g>
</svg>